<svg xmlns="http://www.w3.org/2000/svg" viewBox="0 0 320 260" width="100%" height="100%">
  <rect width="320" height="260" fill="#f8fafc" stroke="#94a3b8" stroke-width="1.5" rx="3" />
  <rect x="0" y="0" width="320" height="24" fill="#e2e8f0" rx="3 3 0 0" />
  <rect x="6" y="5" width="14" height="14" rx="2" fill="#38bdf8" />
  <circle cx="13" cy="12" r="4" fill="#f59e0b" />
  <text x="26" y="17" font-family="Arial, sans-serif" font-size="11" font-weight="bold" fill="#334155">Figure 1</text>
  <rect x="250" y="4" width="18" height="15" fill="#e2e8f0" stroke="#cbd5e1" />
  <line x1="254" y1="14" x2="264" y2="14" stroke="#475569" stroke-width="1.2" />
  <rect x="272" y="4" width="18" height="15" fill="#e2e8f0" stroke="#cbd5e1" />
  <rect x="276" y="7" width="10" height="9" fill="none" stroke="#475569" stroke-width="1.2" />
  <rect x="294" y="4" width="22" height="15" fill="#ef4444" rx="1" />
  <line x1="300" y1="8" x2="310" y2="15" stroke="#ffffff" stroke-width="1.5" />
  <line x1="310" y1="8" x2="300" y2="15" stroke="#ffffff" stroke-width="1.5" />
  
  <rect x="12" y="28" width="296" height="206" fill="#ffffff" stroke="#cbd5e1" stroke-width="1" />
  
  <!-- Y-Axis Label: some numbers -->
  <text x="24" y="125" font-family="'Times New Roman', serif" font-size="13" fill="#1e293b" transform="rotate(-90 24 125)" text-anchor="middle">some numbers</text>
  
  <!-- Plot Frame -->
  <rect x="65" y="50" width="215" height="150" fill="none" stroke="#111827" stroke-width="2" />
  
  <!-- Y Ticks -->
  <text x="60" y="60" font-family="'Times New Roman', serif" font-size="11" fill="#1e293b" text-anchor="end">4.0</text>
  <text x="60" y="84" font-family="'Times New Roman', serif" font-size="11" fill="#1e293b" text-anchor="end">3.5</text>
  <text x="60" y="108" font-family="'Times New Roman', serif" font-size="11" fill="#1e293b" text-anchor="end">3.0</text>
  <text x="60" y="132" font-family="'Times New Roman', serif" font-size="11" fill="#1e293b" text-anchor="end">2.5</text>
  <text x="60" y="156" font-family="'Times New Roman', serif" font-size="11" fill="#1e293b" text-anchor="end">2.0</text>
  <text x="60" y="180" font-family="'Times New Roman', serif" font-size="11" fill="#1e293b" text-anchor="end">1.5</text>
  <text x="60" y="203" font-family="'Times New Roman', serif" font-size="11" fill="#1e293b" text-anchor="end">1.0</text>
  
  <!-- X Ticks -->
  <text x="72" y="214" font-family="'Times New Roman', serif" font-size="11" fill="#1e293b" text-anchor="middle">0.0</text>
  <text x="105" y="214" font-family="'Times New Roman', serif" font-size="11" fill="#1e293b" text-anchor="middle">0.5</text>
  <text x="138" y="214" font-family="'Times New Roman', serif" font-size="11" fill="#1e293b" text-anchor="middle">1.0</text>
  <text x="172" y="214" font-family="'Times New Roman', serif" font-size="11" fill="#1e293b" text-anchor="middle">1.5</text>
  <text x="206" y="214" font-family="'Times New Roman', serif" font-size="11" fill="#1e293b" text-anchor="middle">2.0</text>
  <text x="240" y="214" font-family="'Times New Roman', serif" font-size="11" fill="#1e293b" text-anchor="middle">2.5</text>
  <text x="274" y="214" font-family="'Times New Roman', serif" font-size="11" fill="#1e293b" text-anchor="middle">3.0</text>
  
  <!-- Straight Blue Line (0.0, 1.0) to (3.0, 4.0) -->
  <line x1="72" y1="200" x2="274" y2="56" stroke="#00a2e8" stroke-width="2.5" />
  
  <!-- Matplotlib Bottom Navigation Toolbar -->
  <rect x="12" y="235" width="296" height="20" fill="#f1f5f9" stroke="#cbd5e1" stroke-width="1" />
  <g transform="translate(18, 238) scale(0.7)" fill="#475569">
    <path d="M2 9 L8 3 L14 9 L14 16 L2 16 Z" fill="none" stroke="#475569" stroke-width="1.5" />
    <path d="M25 10 L20 10 L22 8 M20 10 L22 12" fill="none" stroke="#475569" stroke-width="1.5" />
    <path d="M28 10 L33 10 L31 8 M33 10 L31 12" fill="none" stroke="#475569" stroke-width="1.5" />
    <path d="M43 5 L43 15 M38 10 L48 10" stroke="#475569" stroke-width="1.5" />
    <circle cx="56" cy="9" r="4" fill="none" stroke="#475569" stroke-width="1.5" />
    <line x1="59" y1="12" x2="63" y2="16" stroke="#475569" stroke-width="1.5" />
    <rect x="70" y="6" width="10" height="8" fill="none" stroke="#475569" stroke-width="1.2" />
    <rect x="86" y="6" width="10" height="10" fill="none" stroke="#475569" stroke-width="1.2" />
  </g>
</svg>
